<?xml version="1.0" encoding="UTF-8"?>
<svg id="Layer_1" data-name="Layer 1" xmlns="http://www.w3.org/2000/svg" viewBox="0 0 1201.33 492.6">
  <defs>
    <style>
      .cls-1 {
        fill: #fff;
      }
    </style>
  </defs>
  <path class="cls-1" d="M179.16,287.46c1.13,6.35,2.8,12.29,5.11,17.72,2.3,5.43,5.7,9.8,10.22,13.12,4.51,3.31,9.89,4.97,16.15,4.97,5.15,0,9.48-.78,12.98-2.35,3.49-1.56,6.35-3.36,8.56-5.38,2.21-2.02,3.77-3.68,4.69-4.97,1.66-2.21,2.99-3.54,4-4,1.01-.46,2.53-.69,4.56-.69h23.75c1.84,0,3.36.55,4.55,1.66,1.2,1.1,1.7,2.48,1.52,4.14-.19,2.95-1.7,6.54-4.56,10.77-2.86,4.24-6.95,8.38-12.29,12.43-5.34,4.05-12.01,7.41-20.02,10.08-8.01,2.67-17.17,4-27.47,4-20.43,0-36.63-5.89-48.6-17.67-11.97-11.78-18.41-28.53-19.33-50.25-.19-1.84-.28-4.19-.28-7.04s.09-5.11.28-6.76c.73-13.99,3.91-26,9.53-36.03,5.61-10.03,13.39-17.76,23.33-23.19,9.94-5.43,21.63-8.15,35.07-8.15,14.91,0,27.43,3.09,37.55,9.25,10.12,6.17,17.76,14.73,22.92,25.68,5.15,10.95,7.73,23.61,7.73,37.97v5.8c0,1.84-.65,3.41-1.93,4.69-1.29,1.29-2.95,1.93-4.97,1.93h-70.27c-6.4,0-11.6-5.19-11.6-11.6h0c0-6.4,5.19-11.6,11.6-11.6h39.62v-.83c0-7.18-1.2-13.48-3.59-18.91-2.39-5.43-5.89-9.66-10.49-12.7-4.6-3.04-10.12-4.56-16.57-4.56s-11.97,1.52-16.57,4.56c-4.6,3.04-8.66,7.22-10.96,12.64-8.89,22.25-5.15,40.05-4.22,45.29Z"/>
  <path class="cls-1" d="M680.53,287.46c1.13,6.35,2.8,12.29,5.11,17.72,2.3,5.43,5.7,9.8,10.22,13.12,4.51,3.31,9.89,4.97,16.15,4.97,5.15,0,9.48-.78,12.98-2.35,3.49-1.56,6.35-3.36,8.56-5.38,2.21-2.02,3.77-3.68,4.69-4.97,1.66-2.21,2.99-3.54,4-4,1.01-.46,2.53-.69,4.56-.69h23.75c1.84,0,3.36.55,4.55,1.66,1.2,1.1,1.7,2.48,1.52,4.14-.19,2.95-1.7,6.54-4.56,10.77-2.86,4.24-6.95,8.38-12.29,12.43-5.34,4.05-12.01,7.41-20.02,10.08-8.01,2.67-17.17,4-27.47,4-20.43,0-36.63-5.89-48.6-17.67-11.97-11.78-18.41-28.53-19.33-50.25-.19-1.84-.28-4.19-.28-7.04s.09-5.11.28-6.76c.73-13.99,3.91-26,9.53-36.03,5.61-10.03,13.39-17.76,23.33-23.19,9.94-5.43,21.63-8.15,35.07-8.15,14.91,0,27.43,3.09,37.55,9.25,10.12,6.17,17.76,14.73,22.92,25.68,5.15,10.95,7.73,23.61,7.73,37.97v5.8c0,1.84-.65,3.41-1.93,4.69-1.29,1.29-2.95,1.93-4.97,1.93h-70.27c-6.4,0-11.6-5.19-11.6-11.6h0c0-6.4,5.19-11.6,11.6-11.6h39.62v-.83c0-7.18-1.2-13.48-3.59-18.91-2.39-5.43-5.89-9.66-10.49-12.7-4.6-3.04-10.12-4.56-16.57-4.56s-11.97,1.52-16.57,4.56c-4.6,3.04-8.66,7.22-10.96,12.64-8.89,22.25-5.15,40.05-4.22,45.29Z"/>
  <path class="cls-1" d="M341.24,346.19c-2.95,0-5.11-.69-6.49-2.07-1.38-1.38-2.53-2.99-3.45-4.83l-51.63-128.12c-.37-.92-.55-1.75-.55-2.48,0-1.66.59-3.08,1.79-4.28,1.19-1.19,2.62-1.79,4.28-1.79h22.37c2.21,0,3.86.6,4.97,1.79,1.1,1.2,1.84,2.35,2.21,3.45l36.72,96.92,36.72-96.92c.37-1.1,1.1-2.25,2.21-3.45,1.1-1.19,2.76-1.79,4.97-1.79h22.64c1.47,0,2.8.6,4,1.79,1.2,1.2,1.79,2.62,1.79,4.28,0,.74-.09,1.57-.28,2.48l-51.91,128.12c-.74,1.84-1.84,3.45-3.31,4.83-1.47,1.38-3.68,2.07-6.63,2.07h-20.43Z"/>
  <path class="cls-1" d="M441.09,346.19c-1.84,0-3.41-.64-4.69-1.93-1.29-1.29-1.93-2.85-1.93-4.69v-130.33c0-1.84.64-3.41,1.93-4.69,1.29-1.29,2.85-1.93,4.69-1.93h22.92c2.02,0,3.63.65,4.83,1.93,1.19,1.29,1.79,2.86,1.79,4.69v130.33c0,1.84-.6,3.41-1.79,4.69-1.2,1.29-2.81,1.93-4.83,1.93h-22.92Z"/>
  <path class="cls-1" d="M547.97,348.95c-9.57,0-17.99-1.61-25.27-4.83-7.27-3.22-13.3-7.77-18.08-13.67-4.79-5.89-8.47-12.84-11.05-20.85-2.58-8.01-4.05-16.8-4.42-26.37-.18-3.31-.28-6.3-.28-8.98s.09-5.66.28-8.97c.37-9.2,1.79-17.76,4.28-25.68,2.48-7.91,6.17-14.86,11.04-20.85,4.88-5.98,10.95-10.63,18.22-13.94,7.27-3.31,15.69-4.97,25.27-4.97s18.36,1.7,25.27,5.11c6.9,3.41,12.65,7.78,17.26,13.12v-66.43c0-1.84.59-3.4,1.79-4.69,1.19-1.29,2.8-1.93,4.83-1.93h23.47c1.84,0,3.4.65,4.69,1.93,1.29,1.29,1.93,2.86,1.93,4.69v187.92c0,1.84-.65,3.41-1.93,4.69-1.29,1.29-2.86,1.93-4.69,1.93h-21.81c-2.03,0-3.64-.64-4.83-1.93-1.2-1.29-1.8-2.85-1.8-4.69v-10.22c-4.6,5.71-10.45,10.4-17.53,14.08-7.09,3.68-15.97,5.52-26.65,5.52ZM558.18,319.41c7.73,0,13.9-1.75,18.5-5.25,4.6-3.5,8.01-7.96,10.22-13.39,2.21-5.43,3.4-11,3.59-16.7.18-3.31.28-6.86.28-10.63s-.09-7.32-.28-10.63c-.19-5.52-1.48-10.81-3.87-15.88-2.39-5.06-5.89-9.25-10.49-12.56-4.6-3.31-10.59-4.97-17.95-4.97-7.73,0-13.85,1.7-18.36,5.11-4.51,3.41-7.78,7.87-9.8,13.39-2.03,5.52-3.22,11.6-3.59,18.22-.18,5.52-.18,11.04,0,16.57.37,6.63,1.56,12.7,3.59,18.22,2.02,5.52,5.29,9.99,9.8,13.39,4.51,3.41,10.63,5.11,18.36,5.11Z"/>
  <path class="cls-1" d="M788.14,346.19c-1.66,0-3.09-.6-4.28-1.79-1.2-1.19-1.79-2.62-1.79-4.28,0-.55.14-1.2.41-1.93.28-.73.78-1.66,1.52-2.76l46.94-62.96-43.63-59.09c-.55-.92-.97-1.75-1.24-2.49-.28-.73-.41-1.47-.41-2.21,0-1.66.6-3.08,1.79-4.28,1.2-1.19,2.62-1.79,4.28-1.79h24.02c2.21,0,3.87.55,4.97,1.66,1.1,1.1,1.93,2.12,2.48,3.04l31.2,41.42,31.2-41.42c.73-.92,1.61-1.93,2.62-3.04,1.01-1.1,2.62-1.66,4.83-1.66h22.92c1.66,0,3.08.6,4.28,1.79,1.19,1.2,1.79,2.53,1.79,4,0,.92-.14,1.75-.41,2.48-.28.74-.69,1.57-1.24,2.49l-44.18,59.64,47.22,62.4c.73,1.1,1.24,2.03,1.52,2.76.28.74.41,1.38.41,1.93,0,1.66-.6,3.09-1.79,4.28-1.2,1.2-2.62,1.79-4.28,1.79h-25.13c-2.03,0-3.59-.5-4.69-1.52-1.1-1.01-2.03-1.98-2.76-2.9l-33.13-43.9-33.69,43.9c-.74.92-1.61,1.89-2.62,2.9-1.01,1.01-2.62,1.52-4.83,1.52h-24.3Z"/>
  <path class="cls-1" d="M976.45,348.95c-9.57,0-18.22-1.89-25.96-5.66-7.73-3.77-13.85-8.84-18.36-15.19-4.51-6.35-6.76-13.48-6.76-21.4,0-12.88,5.25-23.15,15.74-30.79,10.49-7.64,24.2-12.74,41.14-15.32l37.83-5.52v-5.8c0-7.73-1.93-13.71-5.8-17.95-3.86-4.23-10.49-6.35-19.88-6.35-6.63,0-12.01,1.34-16.15,4-4.14,2.67-7.23,6.21-9.25,10.63-1.48,2.39-3.59,3.59-6.35,3.59h-21.81c-2.03,0-3.55-.55-4.56-1.66-1.01-1.1-1.52-2.58-1.52-4.42.18-2.94,1.42-6.53,3.73-10.77,2.3-4.23,5.8-8.33,10.49-12.29,4.69-3.96,10.81-7.32,18.36-10.08,7.55-2.76,16.66-4.14,27.34-4.14,11.6,0,21.4,1.43,29.41,4.28,8.01,2.86,14.4,6.67,19.19,11.46,4.79,4.79,8.28,10.4,10.49,16.84,2.21,6.45,3.31,13.25,3.31,20.43v86.7c0,1.84-.65,3.41-1.93,4.69-1.29,1.29-2.86,1.93-4.69,1.93h-22.37c-2.03,0-3.64-.64-4.83-1.93-1.2-1.29-1.79-2.85-1.79-4.69v-10.77c-2.39,3.31-5.62,6.54-9.66,9.66-4.05,3.13-8.97,5.66-14.77,7.59-5.8,1.93-12.66,2.9-20.57,2.9ZM985.84,322.72c6.44,0,12.29-1.38,17.53-4.14,5.25-2.76,9.39-7.04,12.43-12.84,3.04-5.8,4.55-13.12,4.55-21.95v-5.8l-27.61,4.42c-10.86,1.66-18.96,4.33-24.3,8.01-5.34,3.68-8.01,8.19-8.01,13.53,0,4.05,1.24,7.5,3.73,10.35,2.49,2.86,5.66,4.97,9.53,6.35,3.86,1.38,7.91,2.07,12.15,2.07Z"/>
  <rect class="cls-1" x="434.32" y="145.02" width="142.92" height="33.13" rx="16.57" ry="16.57"/>
</svg>